<svg xmlns="http://www.w3.org/2000/svg" width="15" height="15" viewBox="0 0 15 15" fill="none">
  <g clip-path="url(#clip0_52_1192)">
    <path d="M11.875 7.52885C11.5293 7.52885 11.25 7.8089 11.25 8.15381V13.1538C11.25 13.4982 10.97 13.7788 10.625 13.7788H1.875C1.52997 13.7788 1.25004 13.4982 1.25004 13.1538V4.40381C1.25004 4.05945 1.52997 3.77885 1.875 3.77885H6.87504C7.22065 3.77885 7.5 3.49883 7.5 3.15389C7.5 2.80886 7.22065 2.52881 6.87504 2.52881H1.875C0.84126 2.52881 0 3.37007 0 4.40381V13.1538C0 14.1876 0.84126 15.0288 1.875 15.0288H10.625C11.6588 15.0288 12.5 14.1876 12.5 13.1538V8.15381C12.5 7.80822 12.2205 7.52885 11.875 7.52885Z" fill="white"/>
    <path d="M5.8602 6.95944C5.81677 7.00307 5.78701 7.05844 5.7746 7.11875L5.33274 9.32885C5.31215 9.43127 5.34464 9.53689 5.41835 9.61127C5.44744 9.64027 5.48195 9.66325 5.51993 9.6789C5.5579 9.69456 5.59858 9.70258 5.63966 9.7025C5.65958 9.7025 5.68029 9.70066 5.70089 9.69632L7.91028 9.25447C7.97151 9.24187 8.02712 9.21257 8.07027 9.16874L13.0153 4.22372L10.8059 2.01445L5.8602 6.95944ZM14.5427 0.48635C13.9334 -0.123054 12.9421 -0.123054 12.3333 0.48635L11.4684 1.35128L13.6778 3.56068L14.5427 2.69563C14.8377 2.40128 15.0002 2.00873 15.0002 1.59125C15.0002 1.17377 14.8377 0.781252 14.5427 0.48635Z" fill="white"/>
  </g>
  <defs>
    <clipPath id="clip0_52_1192">
      <rect width="15" height="15" fill="white"/>
    </clipPath>
  </defs>
</svg>